{
	"asset":{
		"generator":"Khronos glTF Blender I/O v4.1.63",
		"version":"2.0"
	},
	"scene":0,
	"scenes":[
		{
			"name":"Scene",
			"nodes":[
				7
			]
		}
	],
	"nodes":[
		{
			"name":"\u30dc\u30fc\u30f3"
		},
		{
			"name":"\u30dc\u30fc\u30f3.003",
			"rotation":[
				-0.7002449035644531,
				-3.3113414787955264e-11,
				4.953239951532851e-08,
				0.7139027118682861
			],
			"scale":[
				1,
				0.9999998807907104,
				1
			],
			"translation":[
				-2.220446049250313e-15,
				0.5579575300216675,
				1.210719347000122e-08
			]
		},
		{
			"children":[
				1
			],
			"name":"\u30dc\u30fc\u30f3.001",
			"rotation":[
				-0.5048054456710815,
				-0.4951479434967041,
				-0.5048054456710815,
				0.4951479136943817
			]
		},
		{
			"name":"\u30dc\u30fc\u30f3.004",
			"rotation":[
				-0.7071067690849304,
				2.6692537957728746e-08,
				-2.6692537957728746e-08,
				0.7071067690849304
			],
			"translation":[
				0,
				0.5381645560264587,
				0
			]
		},
		{
			"children":[
				3
			],
			"name":"\u30dc\u30fc\u30f3.002",
			"rotation":[
				-0.5,
				0.5,
				0.5,
				0.5
			]
		},
		{
			"name":"neutral_bone",
			"rotation":[
				-0.7071067690849304,
				0,
				0,
				0.7071067690849304
			]
		},
		{
			"mesh":0,
			"name":"\u982d",
			"skin":0
		},
		{
			"children":[
				6,
				0,
				2,
				4,
				5
			],
			"name":"\u30a2\u30fc\u30de\u30c1\u30e5\u30a2",
			"scale":[
				1,
				1.8270337581634521,
				1
			],
			"translation":[
				0,
				-0.914682149887085,
				0
			]
		}
	],
	"animations":[
		{
			"channels":[
				{
					"sampler":0,
					"target":{
						"node":0,
						"path":"translation"
					}
				},
				{
					"sampler":1,
					"target":{
						"node":0,
						"path":"rotation"
					}
				},
				{
					"sampler":2,
					"target":{
						"node":0,
						"path":"scale"
					}
				},
				{
					"sampler":3,
					"target":{
						"node":2,
						"path":"translation"
					}
				},
				{
					"sampler":4,
					"target":{
						"node":2,
						"path":"rotation"
					}
				},
				{
					"sampler":5,
					"target":{
						"node":2,
						"path":"scale"
					}
				},
				{
					"sampler":6,
					"target":{
						"node":1,
						"path":"translation"
					}
				},
				{
					"sampler":7,
					"target":{
						"node":1,
						"path":"rotation"
					}
				},
				{
					"sampler":8,
					"target":{
						"node":1,
						"path":"scale"
					}
				},
				{
					"sampler":9,
					"target":{
						"node":4,
						"path":"translation"
					}
				},
				{
					"sampler":10,
					"target":{
						"node":4,
						"path":"rotation"
					}
				},
				{
					"sampler":11,
					"target":{
						"node":4,
						"path":"scale"
					}
				},
				{
					"sampler":12,
					"target":{
						"node":3,
						"path":"translation"
					}
				},
				{
					"sampler":13,
					"target":{
						"node":3,
						"path":"rotation"
					}
				},
				{
					"sampler":14,
					"target":{
						"node":3,
						"path":"scale"
					}
				}
			],
			"name":"\u30a2\u30fc\u30de\u30c1\u30e5\u30a2Action",
			"samplers":[
				{
					"input":7,
					"interpolation":"STEP",
					"output":8
				},
				{
					"input":7,
					"interpolation":"STEP",
					"output":9
				},
				{
					"input":7,
					"interpolation":"STEP",
					"output":10
				},
				{
					"input":7,
					"interpolation":"STEP",
					"output":11
				},
				{
					"input":7,
					"interpolation":"STEP",
					"output":12
				},
				{
					"input":7,
					"interpolation":"STEP",
					"output":13
				},
				{
					"input":7,
					"interpolation":"STEP",
					"output":14
				},
				{
					"input":15,
					"interpolation":"LINEAR",
					"output":16
				},
				{
					"input":7,
					"interpolation":"STEP",
					"output":17
				},
				{
					"input":7,
					"interpolation":"STEP",
					"output":18
				},
				{
					"input":7,
					"interpolation":"STEP",
					"output":19
				},
				{
					"input":7,
					"interpolation":"STEP",
					"output":20
				},
				{
					"input":7,
					"interpolation":"STEP",
					"output":21
				},
				{
					"input":15,
					"interpolation":"LINEAR",
					"output":22
				},
				{
					"input":7,
					"interpolation":"STEP",
					"output":23
				}
			]
		}
	],
	"materials":[
		{
			"doubleSided":true,
			"name":"\u30de\u30c6\u30ea\u30a2\u30eb",
			"pbrMetallicRoughness":{
				"baseColorTexture":{
					"index":0
				},
				"metallicFactor":0,
				"roughnessFactor":0.5
			}
		}
	],
	"meshes":[
		{
			"name":"\u7acb\u65b9\u4f53.001",
			"primitives":[
				{
					"attributes":{
						"POSITION":0,
						"NORMAL":1,
						"TEXCOORD_0":2,
						"JOINTS_0":3,
						"WEIGHTS_0":4
					},
					"indices":5,
					"material":0
				}
			]
		}
	],
	"textures":[
		{
			"sampler":0,
			"source":0
		}
	],
	"images":[
		{
			"mimeType":"image/png",
			"name":"boss",
			"uri":"boss.png"
		}
	],
	"skins":[
		{
			"inverseBindMatrices":6,
			"joints":[
				0,
				2,
				1,
				4,
				3,
				5
			],
			"name":"\u30a2\u30fc\u30de\u30c1\u30e5\u30a2"
		}
	],
	"accessors":[
		{
			"bufferView":0,
			"componentType":5126,
			"count":6164,
			"max":[
				1.0022742748260498,
				2.095792055130005,
				1.0260424613952637
			],
			"min":[
				-0.9771100282669067,
				-0.9989563226699829,
				-1.0724031925201416
			],
			"type":"VEC3"
		},
		{
			"bufferView":1,
			"componentType":5126,
			"count":6164,
			"type":"VEC3"
		},
		{
			"bufferView":2,
			"componentType":5126,
			"count":6164,
			"type":"VEC2"
		},
		{
			"bufferView":3,
			"componentType":5121,
			"count":6164,
			"type":"VEC4"
		},
		{
			"bufferView":4,
			"componentType":5126,
			"count":6164,
			"type":"VEC4"
		},
		{
			"bufferView":5,
			"componentType":5123,
			"count":32880,
			"type":"SCALAR"
		},
		{
			"bufferView":6,
			"componentType":5126,
			"count":6,
			"type":"MAT4"
		},
		{
			"bufferView":7,
			"componentType":5126,
			"count":2,
			"max":[
				1.6666666666666667
			],
			"min":[
				0.041666666666666664
			],
			"type":"SCALAR"
		},
		{
			"bufferView":8,
			"componentType":5126,
			"count":2,
			"type":"VEC3"
		},
		{
			"bufferView":9,
			"componentType":5126,
			"count":2,
			"type":"VEC4"
		},
		{
			"bufferView":10,
			"componentType":5126,
			"count":2,
			"type":"VEC3"
		},
		{
			"bufferView":11,
			"componentType":5126,
			"count":2,
			"type":"VEC3"
		},
		{
			"bufferView":12,
			"componentType":5126,
			"count":2,
			"type":"VEC4"
		},
		{
			"bufferView":13,
			"componentType":5126,
			"count":2,
			"type":"VEC3"
		},
		{
			"bufferView":14,
			"componentType":5126,
			"count":2,
			"type":"VEC3"
		},
		{
			"bufferView":15,
			"componentType":5126,
			"count":40,
			"max":[
				1.6666666666666667
			],
			"min":[
				0.041666666666666664
			],
			"type":"SCALAR"
		},
		{
			"bufferView":16,
			"componentType":5126,
			"count":40,
			"type":"VEC4"
		},
		{
			"bufferView":17,
			"componentType":5126,
			"count":2,
			"type":"VEC3"
		},
		{
			"bufferView":18,
			"componentType":5126,
			"count":2,
			"type":"VEC3"
		},
		{
			"bufferView":19,
			"componentType":5126,
			"count":2,
			"type":"VEC4"
		},
		{
			"bufferView":20,
			"componentType":5126,
			"count":2,
			"type":"VEC3"
		},
		{
			"bufferView":21,
			"componentType":5126,
			"count":2,
			"type":"VEC3"
		},
		{
			"bufferView":22,
			"componentType":5126,
			"count":40,
			"type":"VEC4"
		},
		{
			"bufferView":23,
			"componentType":5126,
			"count":2,
			"type":"VEC3"
		}
	],
	"bufferViews":[
		{
			"buffer":0,
			"byteLength":73968,
			"byteOffset":0,
			"target":34962
		},
		{
			"buffer":0,
			"byteLength":73968,
			"byteOffset":73968,
			"target":34962
		},
		{
			"buffer":0,
			"byteLength":49312,
			"byteOffset":147936,
			"target":34962
		},
		{
			"buffer":0,
			"byteLength":24656,
			"byteOffset":197248,
			"target":34962
		},
		{
			"buffer":0,
			"byteLength":98624,
			"byteOffset":221904,
			"target":34962
		},
		{
			"buffer":0,
			"byteLength":65760,
			"byteOffset":320528,
			"target":34963
		},
		{
			"buffer":0,
			"byteLength":384,
			"byteOffset":386288
		},
		{
			"buffer":0,
			"byteLength":8,
			"byteOffset":386672
		},
		{
			"buffer":0,
			"byteLength":24,
			"byteOffset":386680
		},
		{
			"buffer":0,
			"byteLength":32,
			"byteOffset":386704
		},
		{
			"buffer":0,
			"byteLength":24,
			"byteOffset":386736
		},
		{
			"buffer":0,
			"byteLength":24,
			"byteOffset":386760
		},
		{
			"buffer":0,
			"byteLength":32,
			"byteOffset":386784
		},
		{
			"buffer":0,
			"byteLength":24,
			"byteOffset":386816
		},
		{
			"buffer":0,
			"byteLength":24,
			"byteOffset":386840
		},
		{
			"buffer":0,
			"byteLength":160,
			"byteOffset":386864
		},
		{
			"buffer":0,
			"byteLength":640,
			"byteOffset":387024
		},
		{
			"buffer":0,
			"byteLength":24,
			"byteOffset":387664
		},
		{
			"buffer":0,
			"byteLength":24,
			"byteOffset":387688
		},
		{
			"buffer":0,
			"byteLength":32,
			"byteOffset":387712
		},
		{
			"buffer":0,
			"byteLength":24,
			"byteOffset":387744
		},
		{
			"buffer":0,
			"byteLength":24,
			"byteOffset":387768
		},
		{
			"buffer":0,
			"byteLength":640,
			"byteOffset":387792
		},
		{
			"buffer":0,
			"byteLength":24,
			"byteOffset":388432
		}
	],
	"samplers":[
		{
			"magFilter":9729,
			"minFilter":9987
		}
	],
	"buffers":[
		{
			"byteLength":388456,
			"uri":"boss.bin"
		}
	]
}
